# xmcd CD database file
#
# Track frame offsets:
#	150
#	4729
#	72039
#
# Disc length: 2699 seconds
#
# Revision: 0
# Processed by: cddbd v1.5.1PL0 Copyright (c) Steve Scherf et al.
# Submitted via: CDex 1.51
#
DISCID=1a0a8903
DTITLE=Bob Milne - America, Go USA!
DYEAR=2001
DGENRE=Jazz
TTITLE0=God Bless America
TTITLE1=Reminiscence of USS George Washington
TTITLE2=Patriotic Medley
EXTD=YEAR: 2001
EXTT0=
EXTT1=
EXTT2=
PLAYORDER=
